<svg xmlns="http://www.w3.org/2000/svg" width="36" height="35.995" viewBox="0 0 36 35.995">
  <g id="icon-upload" transform="translate(-341 -113.003)">
    <path id="Icon_awesome-upload" data-name="Icon awesome-upload" d="M36,26.438v7.875A1.683,1.683,0,0,1,34.313,36H1.688A1.683,1.683,0,0,1,0,34.313V26.438A1.683,1.683,0,0,1,1.688,24.75H11.25v.563a3.94,3.94,0,0,0,3.938,3.938h5.625a3.94,3.94,0,0,0,3.938-3.937V24.75h9.563A1.683,1.683,0,0,1,36,26.438Zm-8.719,6.188a1.406,1.406,0,1,0-1.406,1.406A1.41,1.41,0,0,0,27.281,32.625Zm4.5,0a1.406,1.406,0,1,0-1.406,1.406A1.41,1.41,0,0,0,31.781,32.625Z" transform="translate(341 112.997)" fill="#309e3b"/>
    <path id="Icon_awesome-upload-2" data-name="Icon awesome-upload" d="M20.813,27H15.188A1.683,1.683,0,0,1,13.5,25.313V13.5H7.334a1.4,1.4,0,0,1-.991-2.4L17.037.4a1.362,1.362,0,0,1,1.92,0l10.7,10.7a1.4,1.4,0,0,1-.991,2.4H22.5V25.313A1.683,1.683,0,0,1,20.813,27Z" transform="translate(341 112.997)" fill="#309e3b"/>
  </g>
</svg>
